<svg xmlns="http://www.w3.org/2000/svg" width="48.444" height="55.001" viewBox="0 0 48.444 55.001"><path fill="#0222bf" d="M45.614 36.594a20.113 20.113 0 0 1-8.066 7.221 25.605 25.605 0 0 1-7.2 2.393c-.279.052-.561.1-.843.137l.243 5.9c.282-.049.563-.1.843-.163a25.033 25.033 0 0 0 8.557-3.554 26.305 26.305 0 0 0 9.291-10.633Z" data-name="Path 35"></path><path fill="#0222bf" d="M26.189 24.359h-3.921l-.92 22.227a27.5 27.5 0 0 1-3.244-.383 25.587 25.587 0 0 1-7.2-2.385 20.113 20.113 0 0 1-8.066-7.221L0 37.889a26.305 26.305 0 0 0 9.3 10.633 25.034 25.034 0 0 0 8.557 3.567 24.731 24.731 0 0 0 3.238.46l3.127 2.453 3.13-2.453-1.168-28.171Z" data-name="Path 36"></path><path fill="#0222bf" d="M38.22 21.943h2.254a9.123 9.123 0 0 0 6.805-3.135h-6.28c-.08.134-.163.258-.258.4a11.23 11.23 0 0 1-1.155 1.473 11.506 11.506 0 0 1-1.366 1.262Z" data-name="Path 37"></path><path fill="#0222bf" d="M8.95 16.418h4.257a5.583 5.583 0 0 1-.9-3.032c0-3 1.918-5.427 4.911-5.427h.277a8.475 8.475 0 0 1 4.135 1.272l1.827-1.713a8.529 8.529 0 0 0-5.8-2.7h-.432a8.812 8.812 0 0 0-8.834 8.575 8.679 8.679 0 0 0 .191 1.809 7.84 7.84 0 0 0 .368 1.216Z" data-name="Path 38"></path><path fill="#0222bf" d="M8.001 21.953h23.232a8.907 8.907 0 0 0 8.645-6.769c.054-.258.1-.517.129-.775a8.669 8.669 0 0 0 .062-1.034 8.565 8.565 0 0 0-4.04-7.159l-.031-.018-.132-.083a8.93 8.93 0 0 0-3.657-1.259 8.371 8.371 0 0 0-1.825-2.435A9.126 9.126 0 0 0 24.22-.001a8.547 8.547 0 0 0-5.992 2.441 11.4 11.4 0 0 1 1.62.258 11.032 11.032 0 0 1 1.714.576 6.42 6.42 0 0 1 2.4-.3 5.655 5.655 0 0 1 4.463 2.463 5.717 5.717 0 0 1 .706 1.427 7.834 7.834 0 0 1 .2 3.567 9.1 9.1 0 0 1-.7 2.3l1.825 1.721a9.889 9.889 0 0 0 2.228-3.636 7.261 7.261 0 0 0 .37-2.243v-.3a5.284 5.284 0 0 1 3.1 5.1 5.473 5.473 0 0 1-.052.742 5.063 5.063 0 0 1-.07.406 5.626 5.626 0 0 1-.553 1.5l-.034.062v.023a5.244 5.244 0 0 1-4.588 2.706H1.191a9.123 9.123 0 0 0 6.81 3.141Z" data-name="Path 39"></path></svg>